<mxfile host="Electron" agent="Mozilla/5.0 (Macintosh; Intel Mac OS X 10_15_7) AppleWebKit/537.36 (KHTML, like Gecko) draw.io/24.7.17 Chrome/128.0.6613.36 Electron/32.0.1 Safari/537.36" version="24.7.17">
  <diagram name="第 1 页" id="90EkJR3q6vD6_3AhI213">
    <mxGraphModel dx="954" dy="727" grid="1" gridSize="10" guides="1" tooltips="1" connect="1" arrows="1" fold="1" page="1" pageScale="1" pageWidth="827" pageHeight="1169" math="0" shadow="0">
      <root>
        <mxCell id="0" />
        <mxCell id="1" parent="0" />
        <mxCell id="8uSOL4PKEkUGofZiI4JH-1" value="{7, 0} {7, 1} {6, 1} {5, 0} {5, 2} {4, 4}" style="text;html=1;align=center;verticalAlign=middle;resizable=0;points=[];autosize=1;strokeColor=none;fillColor=none;" vertex="1" parent="1">
          <mxGeometry x="280" y="160" width="210" height="30" as="geometry" />
        </mxCell>
        <mxCell id="8uSOL4PKEkUGofZiI4JH-2" value="身高从大到小排（身高相同 k 小的站前面）" style="text;html=1;align=center;verticalAlign=middle;resizable=0;points=[];autosize=1;strokeColor=none;fillColor=none;" vertex="1" parent="1">
          <mxGeometry x="260" y="130" width="250" height="30" as="geometry" />
        </mxCell>
        <mxCell id="8uSOL4PKEkUGofZiI4JH-3" value="" style="endArrow=classic;html=1;rounded=0;strokeColor=#FF0000;" edge="1" parent="1">
          <mxGeometry width="50" height="50" relative="1" as="geometry">
            <mxPoint x="470" y="200" as="sourcePoint" />
            <mxPoint x="320" y="200" as="targetPoint" />
          </mxGeometry>
        </mxCell>
        <mxCell id="8uSOL4PKEkUGofZiI4JH-4" value="{5, 2} 前面一定都比 {5, 2} 高，那么 {5, 2} 可以放心插入下标为 2 的位置，&lt;div&gt;这样就确定了 {5, 2} 前面一定有两个比它高的元素&lt;/div&gt;" style="text;html=1;align=center;verticalAlign=middle;resizable=0;points=[];autosize=1;strokeColor=none;fillColor=none;fontColor=#FF0000;" vertex="1" parent="1">
          <mxGeometry x="180" y="210" width="410" height="40" as="geometry" />
        </mxCell>
      </root>
    </mxGraphModel>
  </diagram>
</mxfile>
